<svg width="484" height="619" viewBox="0 0 484 619" fill="none" xmlns="http://www.w3.org/2000/svg">
<line x1="183" y1="3.99684" x2="183.973" y2="618.997" stroke="black" stroke-width="4"/>
<line x1="159.993" y1="2.50781" x2="205.005" y2="2.49152" stroke="black" stroke-width="4"/>
<ellipse cx="182.5" cy="70" rx="11.5" ry="11" fill="#FCA92D"/>
<ellipse cx="181.5" cy="139" rx="11.5" ry="11" fill="#FCA92D"/>
<ellipse cx="181.5" cy="213" rx="11.5" ry="11" fill="#FCA92D"/>
<ellipse cx="181.5" cy="353" rx="11.5" ry="11" fill="#FCA92D"/>
<ellipse cx="182.5" cy="505" rx="11.5" ry="11" fill="#FCA92D"/>
<line x1="194" y1="69.5" x2="284" y2="69.5" stroke="black"/>
<line x1="193" y1="138.5" x2="283" y2="138.5" stroke="black"/>
<line x1="193" y1="212.5" x2="283" y2="212.5" stroke="black"/>
<path d="M153 213.016L170 213.484" stroke="black"/>
<line x1="193" y1="352.5" x2="283" y2="352.5" stroke="black"/>
<line x1="193" y1="504.5" x2="245" y2="504.5" stroke="black"/>
<path d="M316.896 69V54.6H311.976V52.824H323.952V54.6H319.008V69H316.896ZM325.73 52.824H327.842V69H325.73V52.824ZM331.472 69V52.824H333.584V67.248H340.496V69H331.472ZM356.832 69L356.448 61.896C356.328 59.64 356.184 56.904 356.184 54.912H356.136C355.56 56.784 354.912 58.824 354.096 61.056L351.24 68.904H349.656L347.016 61.2C346.248 58.896 345.624 56.832 345.168 54.912H345.12C345.072 56.928 344.952 59.616 344.808 62.064L344.376 69H342.384L343.512 52.824H346.176L348.936 60.648C349.608 62.64 350.136 64.416 350.568 66.096H350.616C351.048 64.464 351.624 62.688 352.344 60.648L355.224 52.824H357.888L358.896 69H356.832ZM370.457 59.688V61.416H364.193V67.248H371.201V69H362.081V52.824H370.841V54.576H364.193V59.688H370.457ZM373.894 69V52.824H376.006V67.248H382.918V69H373.894ZM385.238 68.952V53.064C386.51 52.848 388.022 52.704 389.678 52.704C392.678 52.704 394.814 53.424 396.23 54.72C397.694 56.04 398.534 57.912 398.534 60.528C398.534 63.168 397.694 65.328 396.206 66.816C394.67 68.328 392.174 69.144 389.03 69.144C387.518 69.144 386.294 69.072 385.238 68.952ZM387.326 54.576V67.368C387.854 67.44 388.622 67.464 389.438 67.464C393.926 67.464 396.326 64.968 396.326 60.6C396.35 56.784 394.19 54.36 389.774 54.36C388.694 54.36 387.878 54.456 387.326 54.576ZM403.685 69V54.6H398.765V52.824H410.741V54.6H405.797V69H403.685Z" fill="black"/>
<path d="M295.352 343.536C299.792 343.536 302.648 346.92 302.648 351.744C302.648 357.288 299.264 360.264 295.136 360.264C290.84 360.264 287.864 356.928 287.864 352.032C287.864 346.896 291.032 343.536 295.352 343.536ZM295.28 345.24C291.8 345.24 290.072 348.456 290.072 351.984C290.072 355.464 291.944 358.56 295.256 358.56C298.568 358.56 300.44 355.512 300.44 351.84C300.44 348.6 298.76 345.24 295.28 345.24ZM305.371 360V344.016C306.379 343.848 307.699 343.704 309.379 343.704C311.443 343.704 312.955 344.184 313.915 345.048C314.779 345.816 315.331 346.992 315.331 348.432C315.331 349.896 314.899 351.048 314.083 351.888C312.955 353.064 311.179 353.664 309.139 353.664C308.515 353.664 307.939 353.64 307.459 353.52V360H305.371ZM307.459 345.528V351.816C307.915 351.936 308.491 351.984 309.187 351.984C311.707 351.984 313.243 350.736 313.243 348.552C313.243 346.392 311.707 345.36 309.427 345.36C308.515 345.36 307.819 345.432 307.459 345.528ZM318.12 360V343.824H326.832V345.576H320.232V350.952H326.328V352.68H320.232V360H318.12ZM330.704 361.032L329.528 360.072L331.016 357.984C329.672 356.52 328.88 354.408 328.88 351.984C328.88 346.872 332.096 343.536 336.344 343.536C337.832 343.536 339.224 343.968 340.376 344.832L341.792 342.888L343.064 343.752L341.576 345.816C342.92 347.28 343.664 349.392 343.664 351.768C343.664 357.408 340.184 360.264 336.296 360.264C334.784 360.264 333.368 359.808 332.216 358.968L330.704 361.032ZM332.24 356.208L339.344 346.344C338.528 345.648 337.52 345.216 336.296 345.216C332.792 345.216 331.016 348.48 331.016 351.888C331.016 353.688 331.472 354.984 332.192 356.232L332.24 356.208ZM340.328 347.616L333.248 357.432C334.04 358.176 334.952 358.584 336.272 358.584C339.632 358.584 341.528 355.464 341.528 351.84C341.528 350.448 341.24 349.008 340.4 347.616H340.328ZM346.363 360V343.824H348.475V358.248H355.387V360H346.363ZM369.105 351.504V359.28C368.169 359.64 366.297 360.168 364.113 360.168C361.665 360.168 359.649 359.544 358.065 358.032C356.673 356.688 355.809 354.528 355.809 352.008C355.809 347.184 359.145 343.656 364.569 343.656C366.441 343.656 367.929 344.064 368.625 344.4L368.097 346.104C367.233 345.696 366.153 345.408 364.521 345.408C360.585 345.408 358.017 347.856 358.017 351.912C358.017 356.016 360.465 358.44 364.257 358.44C365.625 358.44 366.561 358.248 367.041 358.008V353.184H363.777V351.504H369.105ZM372.261 343.824H374.373V360H372.261V343.824ZM379.995 360H378.027V343.824H380.331L385.491 352.008C386.667 353.904 387.627 355.608 388.371 357.264L388.443 357.24C388.251 355.08 388.203 353.112 388.203 350.592V343.824H390.171V360H388.059L382.923 351.792C381.795 349.992 380.715 348.144 379.923 346.392L379.851 346.416C379.971 348.456 379.995 350.4 379.995 353.088V360ZM406.16 351.504V359.28C405.224 359.64 403.352 360.168 401.168 360.168C398.72 360.168 396.704 359.544 395.12 358.032C393.728 356.688 392.864 354.528 392.864 352.008C392.864 347.184 396.2 343.656 401.624 343.656C403.496 343.656 404.984 344.064 405.68 344.4L405.152 346.104C404.288 345.696 403.208 345.408 401.576 345.408C397.64 345.408 395.072 347.856 395.072 351.912C395.072 356.016 397.52 358.44 401.312 358.44C402.68 358.44 403.616 358.248 404.096 358.008V353.184H400.832V351.504H406.16Z" fill="black"/>
<path d="M252.8 492.824H254.912V509H252.8V492.824ZM270.902 500.504V508.28C269.966 508.64 268.094 509.168 265.91 509.168C263.462 509.168 261.446 508.544 259.862 507.032C258.47 505.688 257.606 503.528 257.606 501.008C257.606 496.184 260.942 492.656 266.366 492.656C268.238 492.656 269.726 493.064 270.422 493.4L269.894 495.104C269.03 494.696 267.95 494.408 266.318 494.408C262.382 494.408 259.814 496.856 259.814 500.912C259.814 505.016 262.262 507.44 266.054 507.44C267.422 507.44 268.358 507.248 268.838 507.008V502.184H265.574V500.504H270.902ZM282.434 503.912H276.698L275.018 509H272.858L278.378 492.824H280.874L286.394 509H284.162L282.434 503.912ZM277.13 502.28H282.026L280.418 497.624C280.058 496.568 279.818 495.608 279.578 494.672H279.53C279.29 495.608 279.05 496.616 278.714 497.6L277.13 502.28ZM290.745 509H288.777V492.824H291.081L296.241 501.008C297.417 502.904 298.377 504.608 299.121 506.264L299.193 506.24C299.001 504.08 298.953 502.112 298.953 499.592V492.824H300.921V509H298.809L293.673 500.792C292.545 498.992 291.465 497.144 290.673 495.392L290.601 495.416C290.721 497.456 290.745 499.4 290.745 502.088V509ZM316.91 500.504V508.28C315.974 508.64 314.102 509.168 311.918 509.168C309.47 509.168 307.454 508.544 305.87 507.032C304.478 505.688 303.614 503.528 303.614 501.008C303.614 496.184 306.95 492.656 312.374 492.656C314.246 492.656 315.734 493.064 316.43 493.4L315.902 495.104C315.038 494.696 313.958 494.408 312.326 494.408C308.39 494.408 305.822 496.856 305.822 500.912C305.822 505.016 308.27 507.44 312.062 507.44C313.43 507.44 314.366 507.248 314.846 507.008V502.184H311.582V500.504H316.91ZM324.36 508.208L324.912 506.456C325.848 507.056 327.192 507.512 328.632 507.512C330.768 507.512 332.016 506.384 332.016 504.752C332.016 503.264 331.152 502.376 328.968 501.56C326.328 500.6 324.696 499.208 324.696 496.952C324.696 494.432 326.784 492.56 329.928 492.56C331.56 492.56 332.784 492.944 333.48 493.352L332.904 495.056C332.4 494.744 331.32 494.288 329.856 494.288C327.648 494.288 326.808 495.608 326.808 496.712C326.808 498.224 327.792 498.968 330.024 499.832C332.76 500.888 334.128 502.208 334.128 504.584C334.128 507.08 332.304 509.264 328.488 509.264C326.928 509.264 325.224 508.784 324.36 508.208ZM343.54 492.536C347.98 492.536 350.836 495.92 350.836 500.744C350.836 506.288 347.452 509.264 343.324 509.264C339.028 509.264 336.052 505.928 336.052 501.032C336.052 495.896 339.22 492.536 343.54 492.536ZM343.468 494.24C339.988 494.24 338.26 497.456 338.26 500.984C338.26 504.464 340.132 507.56 343.444 507.56C346.756 507.56 348.628 504.512 348.628 500.84C348.628 497.6 346.948 494.24 343.468 494.24ZM367.574 509L367.19 501.896C367.07 499.64 366.926 496.904 366.926 494.912H366.878C366.302 496.784 365.654 498.824 364.838 501.056L361.982 508.904H360.398L357.758 501.2C356.99 498.896 356.366 496.832 355.91 494.912H355.862C355.814 496.928 355.694 499.616 355.55 502.064L355.118 509H353.126L354.254 492.824H356.918L359.678 500.648C360.35 502.64 360.878 504.416 361.31 506.096H361.358C361.79 504.464 362.366 502.688 363.086 500.648L365.966 492.824H368.63L369.638 509H367.574ZM377.909 509V492.824H386.621V494.576H380.021V499.952H386.117V501.68H380.021V509H377.909ZM389.629 509V493.04C390.685 492.848 392.221 492.704 393.637 492.704C395.869 492.704 397.333 493.136 398.317 494.024C399.109 494.744 399.589 495.848 399.589 497.12C399.589 499.232 398.245 500.648 396.565 501.224V501.296C397.789 501.728 398.533 502.88 398.917 504.56C399.445 506.816 399.829 508.376 400.165 509H398.005C397.741 508.52 397.381 507.152 396.949 505.136C396.469 502.904 395.581 502.064 393.685 501.992H391.717V509H389.629ZM391.717 494.504V500.408H393.853C396.085 500.408 397.501 499.184 397.501 497.336C397.501 495.248 395.989 494.336 393.781 494.336C392.773 494.336 392.077 494.408 391.717 494.504ZM402.519 492.824H404.631V509H402.519V492.824ZM414.141 509H411.837L406.533 492.824H408.813L411.333 500.792C412.005 502.976 412.605 504.944 413.061 506.84H413.109C413.565 504.968 414.213 502.928 414.957 500.816L417.693 492.824H419.925L414.141 509ZM421.644 492.824H423.756V509H421.644V492.824ZM427.386 509V492.824H429.498V507.248H436.41V509H427.386ZM438.706 509V492.824H440.818V507.248H447.73V509H438.706ZM450.027 492.824H452.139V509H450.027V492.824ZM468.129 500.504V508.28C467.193 508.64 465.321 509.168 463.137 509.168C460.689 509.168 458.673 508.544 457.089 507.032C455.697 505.688 454.833 503.528 454.833 501.008C454.833 496.184 458.169 492.656 463.593 492.656C465.465 492.656 466.953 493.064 467.649 493.4L467.121 495.104C466.257 494.696 465.177 494.408 463.545 494.408C459.609 494.408 457.041 496.856 457.041 500.912C457.041 505.016 459.489 507.44 463.281 507.44C464.649 507.44 465.585 507.248 466.065 507.008V502.184H462.801V500.504H468.129Z" fill="black"/>
<path d="M295.008 140.208L295.56 138.456C296.496 139.056 297.84 139.512 299.28 139.512C301.416 139.512 302.664 138.384 302.664 136.752C302.664 135.264 301.8 134.376 299.616 133.56C296.976 132.6 295.344 131.208 295.344 128.952C295.344 126.432 297.432 124.56 300.576 124.56C302.208 124.56 303.432 124.944 304.128 125.352L303.552 127.056C303.048 126.744 301.968 126.288 300.504 126.288C298.296 126.288 297.456 127.608 297.456 128.712C297.456 130.224 298.44 130.968 300.672 131.832C303.408 132.888 304.776 134.208 304.776 136.584C304.776 139.08 302.952 141.264 299.136 141.264C297.576 141.264 295.872 140.784 295.008 140.208ZM316.012 135.912H310.276L308.596 141H306.436L311.956 124.824H314.452L319.972 141H317.74L316.012 135.912ZM310.708 134.28H315.604L313.996 129.624C313.636 128.568 313.396 127.608 313.156 126.672H313.108C312.868 127.608 312.628 128.616 312.292 129.6L310.708 134.28ZM336.278 141L335.894 133.896C335.774 131.64 335.63 128.904 335.63 126.912H335.582C335.006 128.784 334.358 130.824 333.542 133.056L330.686 140.904H329.102L326.462 133.2C325.694 130.896 325.07 128.832 324.614 126.912H324.566C324.518 128.928 324.398 131.616 324.254 134.064L323.822 141H321.83L322.958 124.824H325.622L328.382 132.648C329.054 134.64 329.582 136.416 330.014 138.096H330.062C330.494 136.464 331.07 134.688 331.79 132.648L334.67 124.824H337.334L338.342 141H336.278ZM344.388 141V126.6H339.468V124.824H351.444V126.6H346.5V141H344.388ZM359.793 135.912H354.057L352.377 141H350.217L355.737 124.824H358.233L363.753 141H361.521L359.793 135.912ZM354.489 134.28H359.385L357.777 129.624C357.417 128.568 357.177 127.608 356.937 126.672H356.889C356.649 127.608 356.409 128.616 356.073 129.6L354.489 134.28ZM366.113 141V124.824H368.225V139.248H375.137V141H366.113ZM385.809 131.688V133.416H379.545V139.248H386.553V141H377.433V124.824H386.193V126.576H379.545V131.688H385.809Z" fill="black"/>
<path d="M303.176 207.912H297.44L295.76 213H293.6L299.12 196.824H301.616L307.136 213H304.904L303.176 207.912ZM297.872 206.28H302.768L301.16 201.624C300.8 200.568 300.56 199.608 300.32 198.672H300.272C300.032 199.608 299.792 200.616 299.456 201.6L297.872 206.28ZM309.519 213V196.824H311.607V204.624H311.679C312.111 204 312.543 203.424 312.951 202.896L317.895 196.824H320.487L314.631 203.688L320.943 213H318.471L313.167 205.056L311.607 206.832V213H309.519ZM326.115 213V198.6H321.195V196.824H333.171V198.6H328.227V213H326.115ZM334.948 196.824H337.06V213H334.948V196.824ZM346.571 213H344.267L338.963 196.824H341.243L343.763 204.792C344.435 206.976 345.035 208.944 345.491 210.84H345.539C345.995 208.968 346.643 206.928 347.387 204.816L350.123 196.824H352.355L346.571 213ZM354.073 196.824H356.185V213H354.073V196.824ZM362.912 213V198.6H357.992V196.824H369.968V198.6H365.024V213H362.912ZM380.121 203.688V205.416H373.857V211.248H380.865V213H371.745V196.824H380.505V198.576H373.857V203.688H380.121ZM387.029 213V198.6H382.109V196.824H394.085V198.6H389.141V213H387.029Z" fill="black"/>
<path d="M8.352 200.536C12.792 200.536 15.648 203.92 15.648 208.744C15.648 214.288 12.264 217.264 8.136 217.264C3.84 217.264 0.864 213.928 0.864 209.032C0.864 203.896 4.032 200.536 8.352 200.536ZM8.28 202.24C4.8 202.24 3.072 205.456 3.072 208.984C3.072 212.464 4.944 215.56 8.256 215.56C11.568 215.56 13.44 212.512 13.44 208.84C13.44 205.6 11.76 202.24 8.28 202.24ZM20.3389 217H18.3709V200.824H20.6749L25.8349 209.008C27.0109 210.904 27.9709 212.608 28.7149 214.264L28.7869 214.24C28.5949 212.08 28.5469 210.112 28.5469 207.592V200.824H30.5149V217H28.4029L23.2669 208.792C22.1389 206.992 21.0589 205.144 20.2669 203.392L20.1949 203.416C20.3149 205.456 20.3389 207.4 20.3389 210.088V217ZM34.1678 216.952V201.064C35.0798 200.848 36.5438 200.704 37.9838 200.704C40.0718 200.704 41.4158 201.064 42.3998 201.88C43.2398 202.504 43.7678 203.464 43.7678 204.736C43.7678 206.32 42.7118 207.688 41.0318 208.288V208.36C42.5678 208.72 44.3678 209.992 44.3678 212.392C44.3678 213.784 43.8158 214.864 42.9758 215.632C41.8718 216.664 40.0478 217.144 37.4078 217.144C35.9678 217.144 34.8638 217.048 34.1678 216.952ZM36.2558 202.456V207.688H38.1518C40.3358 207.688 41.6318 206.512 41.6318 204.952C41.6318 203.08 40.2158 202.312 38.1038 202.312C37.1438 202.312 36.5918 202.384 36.2558 202.456ZM36.2558 209.248V215.416C36.6878 215.488 37.2638 215.512 38.0078 215.512C40.1678 215.512 42.1598 214.72 42.1598 212.368C42.1598 210.184 40.2638 209.248 37.9838 209.248H36.2558ZM53.7036 200.536C58.1436 200.536 60.9996 203.92 60.9996 208.744C60.9996 214.288 57.6156 217.264 53.4876 217.264C49.1916 217.264 46.2156 213.928 46.2156 209.032C46.2156 203.896 49.3836 200.536 53.7036 200.536ZM53.6316 202.24C50.1516 202.24 48.4236 205.456 48.4236 208.984C48.4236 212.464 50.2956 215.56 53.6076 215.56C56.9196 215.56 58.7916 212.512 58.7916 208.84C58.7916 205.6 57.1116 202.24 53.6316 202.24ZM71.7463 211.912H66.0103L64.3303 217H62.1703L67.6903 200.824H70.1863L75.7063 217H73.4743L71.7463 211.912ZM66.4423 210.28H71.3383L69.7303 205.624C69.3703 204.568 69.1303 203.608 68.8903 202.672H68.8423C68.6023 203.608 68.3623 204.616 68.0263 205.6L66.4423 210.28ZM78.0896 217V201.04C79.1456 200.848 80.6816 200.704 82.0976 200.704C84.3296 200.704 85.7936 201.136 86.7776 202.024C87.5696 202.744 88.0496 203.848 88.0496 205.12C88.0496 207.232 86.7056 208.648 85.0256 209.224V209.296C86.2496 209.728 86.9936 210.88 87.3776 212.56C87.9056 214.816 88.2896 216.376 88.6256 217H86.4656C86.2016 216.52 85.8416 215.152 85.4096 213.136C84.9296 210.904 84.0416 210.064 82.1456 209.992H80.1776V217H78.0896ZM80.1776 202.504V208.408H82.3136C84.5456 208.408 85.9616 207.184 85.9616 205.336C85.9616 203.248 84.4496 202.336 82.2416 202.336C81.2336 202.336 80.5376 202.408 80.1776 202.504ZM91.0037 216.952V201.064C92.2757 200.848 93.7877 200.704 95.4437 200.704C98.4437 200.704 100.58 201.424 101.996 202.72C103.46 204.04 104.3 205.912 104.3 208.528C104.3 211.168 103.46 213.328 101.972 214.816C100.436 216.328 97.9397 217.144 94.7957 217.144C93.2837 217.144 92.0597 217.072 91.0037 216.952ZM93.0917 202.576V215.368C93.6197 215.44 94.3877 215.464 95.2037 215.464C99.6917 215.464 102.092 212.968 102.092 208.6C102.116 204.784 99.9557 202.36 95.5397 202.36C94.4597 202.36 93.6437 202.456 93.0917 202.576ZM106.964 200.824H109.076V217H106.964V200.824ZM114.698 217H112.73V200.824H115.034L120.194 209.008C121.37 210.904 122.33 212.608 123.074 214.264L123.146 214.24C122.954 212.08 122.906 210.112 122.906 207.592V200.824H124.874V217H122.762L117.626 208.792C116.498 206.992 115.418 205.144 114.626 203.392L114.554 203.416C114.674 205.456 114.698 207.4 114.698 210.088V217ZM140.863 208.504V216.28C139.927 216.64 138.055 217.168 135.871 217.168C133.423 217.168 131.407 216.544 129.823 215.032C128.431 213.688 127.567 211.528 127.567 209.008C127.567 204.184 130.903 200.656 136.327 200.656C138.199 200.656 139.687 201.064 140.383 201.4L139.855 203.104C138.991 202.696 137.911 202.408 136.279 202.408C132.343 202.408 129.775 204.856 129.775 208.912C129.775 213.016 132.223 215.44 136.015 215.44C137.383 215.44 138.319 215.248 138.799 215.008V210.184H135.535V208.504H140.863Z" fill="black"/>
</svg>
